<svg width="13" height="10" viewBox="0 0 13 10" fill="none" xmlns="http://www.w3.org/2000/svg">
<path d="M0.102406 1.7072L6.50001 4.9056L12.8976 1.7072C12.8739 1.29955 12.6953 0.916387 12.3983 0.636178C12.1012 0.355969 11.7083 0.199922 11.3 0.199997H1.70001C1.29167 0.199922 0.898764 0.355969 0.601748 0.636178C0.304733 0.916387 0.126089 1.29955 0.102406 1.7072Z" fill="#1E1F26"/>
<path d="M12.9 3.4944L6.50001 6.6944L0.100006 3.4944V8.2C0.100006 8.62434 0.268577 9.03131 0.568635 9.33137C0.868693 9.63143 1.27566 9.8 1.70001 9.8H11.3C11.7244 9.8 12.1313 9.63143 12.4314 9.33137C12.7314 9.03131 12.9 8.62434 12.9 8.2V3.4944Z" fill="#1E1F26"/>
</svg>
